<svg width="176" height="104" viewBox="0 0 176 104" fill="none" xmlns="http://www.w3.org/2000/svg">
<g filter="url(#filter0_dd_829_14948)">
<rect x="25" y="25" width="110" height="46" rx="12" fill="#2E333A"/>
<path d="M56.2693 60.161C55.196 60.161 54.23 59.977 53.3713 59.609C52.5127 59.2257 51.838 58.689 51.3473 57.999C50.8567 57.309 50.6113 56.504 50.6113 55.584H53.4173C53.4787 56.274 53.747 56.8413 54.2223 57.286C54.713 57.7307 55.3953 57.953 56.2693 57.953C57.174 57.953 57.8793 57.7383 58.3853 57.309C58.8913 56.8643 59.1443 56.297 59.1443 55.607C59.1443 55.0703 58.9833 54.6333 58.6613 54.296C58.3547 53.9587 57.9637 53.698 57.4883 53.514C57.0283 53.33 56.3843 53.1307 55.5563 52.916C54.5137 52.64 53.6627 52.364 53.0033 52.088C52.3593 51.7967 51.8073 51.352 51.3473 50.754C50.8873 50.156 50.6573 49.3587 50.6573 48.362C50.6573 47.442 50.8873 46.637 51.3473 45.947C51.8073 45.257 52.4513 44.728 53.2793 44.36C54.1073 43.992 55.0657 43.808 56.1543 43.808C57.703 43.808 58.968 44.199 59.9493 44.981C60.946 45.7477 61.498 46.8057 61.6053 48.155H58.7073C58.6613 47.5723 58.3853 47.074 57.8793 46.66C57.3733 46.246 56.7063 46.039 55.8783 46.039C55.127 46.039 54.5137 46.2307 54.0383 46.614C53.563 46.9973 53.3253 47.5493 53.3253 48.27C53.3253 48.7607 53.471 49.167 53.7623 49.489C54.069 49.7957 54.4523 50.041 54.9123 50.225C55.3723 50.409 56.001 50.6083 56.7983 50.823C57.8563 51.1143 58.715 51.4057 59.3743 51.697C60.049 51.9883 60.6163 52.4407 61.0763 53.054C61.5517 53.652 61.7893 54.457 61.7893 55.469C61.7893 56.2817 61.567 57.0483 61.1223 57.769C60.693 58.4897 60.0567 59.0723 59.2133 59.517C58.3853 59.9463 57.404 60.161 56.2693 60.161ZM66.2172 45.648C65.7419 45.648 65.3432 45.487 65.0212 45.165C64.6992 44.843 64.5382 44.4443 64.5382 43.969C64.5382 43.4937 64.6992 43.095 65.0212 42.773C65.3432 42.451 65.7419 42.29 66.2172 42.29C66.6772 42.29 67.0682 42.451 67.3902 42.773C67.7122 43.095 67.8732 43.4937 67.8732 43.969C67.8732 44.4443 67.7122 44.843 67.3902 45.165C67.0682 45.487 66.6772 45.648 66.2172 45.648ZM67.5052 47.327V60H64.8832V47.327H67.5052ZM76.0537 47.12C77.035 47.12 77.9013 47.3193 78.6527 47.718C79.4193 48.1013 80.0173 48.5843 80.4467 49.167V47.327H83.0917V60.207C83.0917 61.3723 82.8463 62.4073 82.3557 63.312C81.865 64.232 81.152 64.9527 80.2167 65.474C79.2967 65.9953 78.1927 66.256 76.9047 66.256C75.1873 66.256 73.7613 65.8497 72.6267 65.037C71.492 64.2397 70.848 63.151 70.6947 61.771H73.2937C73.493 62.4303 73.9147 62.9593 74.5587 63.358C75.218 63.772 76 63.979 76.9047 63.979C77.9627 63.979 78.8137 63.657 79.4577 63.013C80.117 62.369 80.4467 61.4337 80.4467 60.207V58.091C80.002 58.689 79.3963 59.195 78.6297 59.609C77.8783 60.0077 77.0197 60.207 76.0537 60.207C74.9497 60.207 73.9377 59.931 73.0177 59.379C72.113 58.8117 71.3923 58.0297 70.8557 57.033C70.3343 56.021 70.0737 54.8787 70.0737 53.606C70.0737 52.3333 70.3343 51.2063 70.8557 50.225C71.3923 49.2437 72.113 48.4847 73.0177 47.948C73.9377 47.396 74.9497 47.12 76.0537 47.12ZM80.4467 53.652C80.4467 52.778 80.2627 52.019 79.8947 51.375C79.542 50.731 79.0743 50.2403 78.4917 49.903C77.909 49.5657 77.2803 49.397 76.6057 49.397C75.931 49.397 75.3023 49.5657 74.7197 49.903C74.137 50.225 73.6617 50.708 73.2937 51.352C72.941 51.9807 72.7647 52.732 72.7647 53.606C72.7647 54.48 72.941 55.2467 73.2937 55.906C73.6617 56.5653 74.137 57.0713 74.7197 57.424C75.3177 57.7613 75.9463 57.93 76.6057 57.93C77.2803 57.93 77.909 57.7613 78.4917 57.424C79.0743 57.0867 79.542 56.596 79.8947 55.952C80.2627 55.2927 80.4467 54.526 80.4467 53.652ZM92.9295 47.12C93.9262 47.12 94.8155 47.327 95.5975 47.741C96.3949 48.155 97.0159 48.7683 97.4605 49.581C97.9052 50.3937 98.1275 51.375 98.1275 52.525V60H95.5285V52.916C95.5285 51.7813 95.2449 50.915 94.6775 50.317C94.1102 49.7037 93.3359 49.397 92.3545 49.397C91.3732 49.397 90.5912 49.7037 90.0085 50.317C89.4412 50.915 89.1575 51.7813 89.1575 52.916V60H86.5355V47.327H89.1575V48.776C89.5869 48.2547 90.1312 47.8483 90.7905 47.557C91.4652 47.2657 92.1782 47.12 92.9295 47.12ZM110.069 44.015V60H107.447V44.015H110.069ZM119.905 47.12C120.902 47.12 121.791 47.327 122.573 47.741C123.37 48.155 123.991 48.7683 124.436 49.581C124.881 50.3937 125.103 51.375 125.103 52.525V60H122.504V52.916C122.504 51.7813 122.22 50.915 121.653 50.317C121.086 49.7037 120.311 49.397 119.33 49.397C118.349 49.397 117.567 49.7037 116.984 50.317C116.417 50.915 116.133 51.7813 116.133 52.916V60H113.511V47.327H116.133V48.776C116.562 48.2547 117.107 47.8483 117.766 47.557C118.441 47.2657 119.154 47.12 119.905 47.12Z" fill="#B2C2CB"/>
</g>
<defs>
<filter id="filter0_dd_829_14948" x="0.107913" y="0.107913" width="175.784" height="103.784" filterUnits="userSpaceOnUse" color-interpolation-filters="sRGB">
<feFlood flood-opacity="0" result="BackgroundImageFix"/>
<feColorMatrix in="SourceAlpha" type="matrix" values="0 0 0 0 0 0 0 0 0 0 0 0 0 0 0 0 0 0 127 0" result="hardAlpha"/>
<feOffset dx="6.22302" dy="6.22302"/>
<feGaussianBlur stdDeviation="9.33453"/>
<feColorMatrix type="matrix" values="0 0 0 0 0 0 0 0 0 0 0 0 0 0 0 0 0 0 1 0"/>
<feBlend mode="normal" in2="BackgroundImageFix" result="effect1_dropShadow_829_14948"/>
<feColorMatrix in="SourceAlpha" type="matrix" values="0 0 0 0 0 0 0 0 0 0 0 0 0 0 0 0 0 0 127 0" result="hardAlpha"/>
<feOffset dx="-6.22302" dy="-6.22302"/>
<feGaussianBlur stdDeviation="9.33453"/>
<feColorMatrix type="matrix" values="0 0 0 0 0.231373 0 0 0 0 0.266667 0 0 0 0 0.317647 0 0 0 1 0"/>
<feBlend mode="normal" in2="effect1_dropShadow_829_14948" result="effect2_dropShadow_829_14948"/>
<feBlend mode="normal" in="SourceGraphic" in2="effect2_dropShadow_829_14948" result="shape"/>
</filter>
</defs>
</svg>
