<svg width="40" height="40" viewBox="0 0 40 40" fill="none" xmlns="http://www.w3.org/2000/svg">
<mask id="path-1-inside-1_3573_173" fill="white">
<path d="M15.4657 5L14.4067 5.12746C14.4067 5.12746 9.65549 5.64678 6.18566 8.43322H6.14498L6.10159 8.4739C5.32329 9.18983 4.9843 10.0698 4.44871 11.3566C3.81736 12.9048 3.27989 14.4896 2.83922 16.1024C1.83312 19.7403 1.01685 24.1471 1.01685 28.1783V28.5173L1.18634 28.8563C2.44193 31.0597 4.67108 32.463 6.73752 33.4325C8.80261 34.402 10.5884 34.9159 11.8223 34.958L12.6277 35L13.0507 34.28L14.5341 31.6522C16.107 32.0075 17.9185 32.2461 19.9999 32.2461C22.0812 32.2461 23.8928 32.0075 25.4657 31.6522L26.949 34.28L27.3734 35L28.1775 34.958C29.4114 34.9159 31.1972 34.402 33.2623 33.4325C35.3287 32.463 37.5579 31.0597 38.8134 28.8563L38.9829 28.5173V28.1783C38.9829 24.1471 38.1667 19.7403 37.1606 16.1024C36.7199 14.4896 36.1824 12.9048 35.5511 11.3566C35.0155 10.0685 34.6765 9.18983 33.8982 8.47525L33.8562 8.43186H33.8128C30.3457 5.64678 25.5931 5.12746 25.5931 5.12746L24.5341 5L24.1518 5.97492C24.1518 5.97492 23.7599 6.96475 23.5172 8.09424C22.3515 7.9334 21.1766 7.84825 19.9999 7.83932C19.2745 7.83932 18.0202 7.88678 16.4826 8.09424C16.2385 6.96475 15.8467 5.97492 15.8467 5.97492L15.4657 5ZM13.6012 8.09424C13.6596 8.28407 13.7179 8.44814 13.7707 8.60271C12.0175 9.03661 10.1477 9.6983 8.43244 10.7627L9.87244 13.0515C13.3897 10.8685 18.4419 10.5512 19.9999 10.5512C21.5565 10.5512 26.6101 10.8685 30.1273 13.0515L31.5673 10.7627C29.8521 9.6983 27.9823 9.03661 26.229 8.60136C26.2819 8.44814 26.3402 8.28407 26.3985 8.09288C27.6636 8.3478 30.0799 8.93085 32.0758 10.5092C32.065 10.5146 32.5843 11.2983 33.0507 12.4156C33.528 13.5654 34.0568 15.0963 34.5341 16.8224C35.4507 20.1322 36.1707 24.1634 36.229 27.7119C35.3748 29.0149 33.7924 30.1905 32.1179 30.9756C31.0677 31.4719 29.9566 31.8275 28.8134 32.0332L28.1355 30.8902C28.5382 30.741 28.9355 30.5783 29.2799 30.4237C31.3667 29.5071 32.5002 28.5173 32.5002 28.5173L30.7199 26.4834C30.7199 26.4834 29.9579 27.1831 28.1775 27.9668C26.3999 28.7505 23.6812 29.5342 19.9999 29.5342C16.3185 29.5342 13.6012 28.7505 11.8223 27.9668C10.0419 27.1831 9.27989 26.4834 9.27989 26.4834L7.49956 28.5173C7.49956 28.5173 8.63311 29.5071 10.7199 30.4237C11.0643 30.5783 11.4616 30.7424 11.8643 30.8902L11.1863 32.0346C10.0426 31.8281 8.93106 31.4715 7.88057 30.9742C6.20735 30.1905 4.62362 29.0149 3.7721 27.7119C3.82905 24.1634 4.54905 20.1322 5.46701 16.8224C5.87264 15.3252 6.36754 13.8536 6.94905 12.4156C7.41549 11.2983 7.93481 10.5146 7.92396 10.5092C9.91989 8.93085 12.3362 8.3478 13.6012 8.09424ZM15.2541 17.3308C14.206 17.3308 13.2785 17.9288 12.7118 18.6868C12.145 19.4447 11.8643 20.3763 11.8643 21.3986C11.8643 22.421 12.145 23.3525 12.7118 24.1105C13.2785 24.8685 14.206 25.4664 15.2541 25.4664C16.3023 25.4664 17.2297 24.8685 17.7965 24.1105C18.3633 23.3525 18.644 22.421 18.644 21.3986C18.644 20.3763 18.3633 19.4447 17.7965 18.6868C17.2297 17.9288 16.3023 17.3308 15.2541 17.3308ZM24.7457 17.3308C23.6975 17.3308 22.7701 17.9288 22.2033 18.6868C21.6365 19.4447 21.3558 20.3763 21.3558 21.3986C21.3558 22.421 21.6365 23.3525 22.2033 24.1105C22.7701 24.8685 23.6975 25.4664 24.7457 25.4664C25.7938 25.4664 26.7212 24.8685 27.288 24.1105C27.8548 23.3525 28.1355 22.421 28.1355 21.3986C28.1355 20.3763 27.8548 19.4447 27.288 18.6868C26.7212 17.9288 25.7938 17.3308 24.7457 17.3308ZM15.2541 20.0427C15.3287 20.0427 15.4236 20.0698 15.5931 20.2976C15.7626 20.5241 15.9321 20.9214 15.9321 21.3986C15.9321 21.8759 15.7626 22.2732 15.5931 22.501C15.4236 22.7275 15.3287 22.7546 15.2541 22.7546C15.1796 22.7546 15.0846 22.7275 14.9151 22.4997C14.6909 22.1766 14.5725 21.7919 14.5762 21.3986C14.5762 20.9214 14.7457 20.5241 14.9151 20.2963C15.0846 20.0698 15.1796 20.0427 15.2541 20.0427ZM24.7457 20.0427C24.8202 20.0427 24.9151 20.0698 25.0846 20.2976C25.2541 20.5241 25.4236 20.9214 25.4236 21.3986C25.4236 21.8759 25.2541 22.2732 25.0846 22.501C24.9151 22.7275 24.8202 22.7546 24.7457 22.7546C24.6711 22.7546 24.5762 22.7275 24.4067 22.4997C24.1824 22.1766 24.064 21.7919 24.0677 21.3986C24.0677 20.9214 24.2372 20.5241 24.4067 20.2963C24.5762 20.0698 24.6711 20.0427 24.7457 20.0427Z"/>
</mask>
<path d="M15.4657 5L14.4067 5.12746C14.4067 5.12746 9.65549 5.64678 6.18566 8.43322H6.14498L6.10159 8.4739C5.32329 9.18983 4.9843 10.0698 4.44871 11.3566C3.81736 12.9048 3.27989 14.4896 2.83922 16.1024C1.83312 19.7403 1.01685 24.1471 1.01685 28.1783V28.5173L1.18634 28.8563C2.44193 31.0597 4.67108 32.463 6.73752 33.4325C8.80261 34.402 10.5884 34.9159 11.8223 34.958L12.6277 35L13.0507 34.28L14.5341 31.6522C16.107 32.0075 17.9185 32.2461 19.9999 32.2461C22.0812 32.2461 23.8928 32.0075 25.4657 31.6522L26.949 34.28L27.3734 35L28.1775 34.958C29.4114 34.9159 31.1972 34.402 33.2623 33.4325C35.3287 32.463 37.5579 31.0597 38.8134 28.8563L38.9829 28.5173V28.1783C38.9829 24.1471 38.1667 19.7403 37.1606 16.1024C36.7199 14.4896 36.1824 12.9048 35.5511 11.3566C35.0155 10.0685 34.6765 9.18983 33.8982 8.47525L33.8562 8.43186H33.8128C30.3457 5.64678 25.5931 5.12746 25.5931 5.12746L24.5341 5L24.1518 5.97492C24.1518 5.97492 23.7599 6.96475 23.5172 8.09424C22.3515 7.9334 21.1766 7.84825 19.9999 7.83932C19.2745 7.83932 18.0202 7.88678 16.4826 8.09424C16.2385 6.96475 15.8467 5.97492 15.8467 5.97492L15.4657 5ZM13.6012 8.09424C13.6596 8.28407 13.7179 8.44814 13.7707 8.60271C12.0175 9.03661 10.1477 9.6983 8.43244 10.7627L9.87244 13.0515C13.3897 10.8685 18.4419 10.5512 19.9999 10.5512C21.5565 10.5512 26.6101 10.8685 30.1273 13.0515L31.5673 10.7627C29.8521 9.6983 27.9823 9.03661 26.229 8.60136C26.2819 8.44814 26.3402 8.28407 26.3985 8.09288C27.6636 8.3478 30.0799 8.93085 32.0758 10.5092C32.065 10.5146 32.5843 11.2983 33.0507 12.4156C33.528 13.5654 34.0568 15.0963 34.5341 16.8224C35.4507 20.1322 36.1707 24.1634 36.229 27.7119C35.3748 29.0149 33.7924 30.1905 32.1179 30.9756C31.0677 31.4719 29.9566 31.8275 28.8134 32.0332L28.1355 30.8902C28.5382 30.741 28.9355 30.5783 29.2799 30.4237C31.3667 29.5071 32.5002 28.5173 32.5002 28.5173L30.7199 26.4834C30.7199 26.4834 29.9579 27.1831 28.1775 27.9668C26.3999 28.7505 23.6812 29.5342 19.9999 29.5342C16.3185 29.5342 13.6012 28.7505 11.8223 27.9668C10.0419 27.1831 9.27989 26.4834 9.27989 26.4834L7.49956 28.5173C7.49956 28.5173 8.63311 29.5071 10.7199 30.4237C11.0643 30.5783 11.4616 30.7424 11.8643 30.8902L11.1863 32.0346C10.0426 31.8281 8.93106 31.4715 7.88057 30.9742C6.20735 30.1905 4.62362 29.0149 3.7721 27.7119C3.82905 24.1634 4.54905 20.1322 5.46701 16.8224C5.87264 15.3252 6.36754 13.8536 6.94905 12.4156C7.41549 11.2983 7.93481 10.5146 7.92396 10.5092C9.91989 8.93085 12.3362 8.3478 13.6012 8.09424ZM15.2541 17.3308C14.206 17.3308 13.2785 17.9288 12.7118 18.6868C12.145 19.4447 11.8643 20.3763 11.8643 21.3986C11.8643 22.421 12.145 23.3525 12.7118 24.1105C13.2785 24.8685 14.206 25.4664 15.2541 25.4664C16.3023 25.4664 17.2297 24.8685 17.7965 24.1105C18.3633 23.3525 18.644 22.421 18.644 21.3986C18.644 20.3763 18.3633 19.4447 17.7965 18.6868C17.2297 17.9288 16.3023 17.3308 15.2541 17.3308ZM24.7457 17.3308C23.6975 17.3308 22.7701 17.9288 22.2033 18.6868C21.6365 19.4447 21.3558 20.3763 21.3558 21.3986C21.3558 22.421 21.6365 23.3525 22.2033 24.1105C22.7701 24.8685 23.6975 25.4664 24.7457 25.4664C25.7938 25.4664 26.7212 24.8685 27.288 24.1105C27.8548 23.3525 28.1355 22.421 28.1355 21.3986C28.1355 20.3763 27.8548 19.4447 27.288 18.6868C26.7212 17.9288 25.7938 17.3308 24.7457 17.3308ZM15.2541 20.0427C15.3287 20.0427 15.4236 20.0698 15.5931 20.2976C15.7626 20.5241 15.9321 20.9214 15.9321 21.3986C15.9321 21.8759 15.7626 22.2732 15.5931 22.501C15.4236 22.7275 15.3287 22.7546 15.2541 22.7546C15.1796 22.7546 15.0846 22.7275 14.9151 22.4997C14.6909 22.1766 14.5725 21.7919 14.5762 21.3986C14.5762 20.9214 14.7457 20.5241 14.9151 20.2963C15.0846 20.0698 15.1796 20.0427 15.2541 20.0427ZM24.7457 20.0427C24.8202 20.0427 24.9151 20.0698 25.0846 20.2976C25.2541 20.5241 25.4236 20.9214 25.4236 21.3986C25.4236 21.8759 25.2541 22.2732 25.0846 22.501C24.9151 22.7275 24.8202 22.7546 24.7457 22.7546C24.6711 22.7546 24.5762 22.7275 24.4067 22.4997C24.1824 22.1766 24.064 21.7919 24.0677 21.3986C24.0677 20.9214 24.2372 20.5241 24.4067 20.2963C24.5762 20.0698 24.6711 20.0427 24.7457 20.0427Z" fill="#B2C2CB" stroke="#2E333A" stroke-width="0.8" mask="url(#path-1-inside-1_3573_173)"/>
</svg>
