<svg width="40" height="40" viewBox="0 0 40 40" fill="none" xmlns="http://www.w3.org/2000/svg">
<path d="M14.3993 21.7764L18.1726 18.003L9.91929 9.76302C9.27929 9.12302 8.17262 9.29636 7.77262 10.123C6.82595 12.1097 7.17262 14.5497 8.81262 16.203L14.3993 21.7764ZM23.4393 19.363C25.4793 20.3097 28.346 19.643 30.466 17.523C33.0126 14.9764 33.506 11.323 31.546 9.36302C29.5993 7.41636 25.946 7.89636 23.386 10.443C21.266 12.563 20.5993 15.4297 21.546 17.4697L9.46595 29.5497C9.21665 29.799 9.07659 30.1371 9.07659 30.4897C9.07659 30.8423 9.21665 31.1804 9.46595 31.4297C9.71526 31.679 10.0534 31.819 10.406 31.819C10.7585 31.819 11.0967 31.679 11.346 31.4297L19.5993 23.203L27.8393 31.443C27.9627 31.5665 28.1093 31.6644 28.2706 31.7312C28.4318 31.798 28.6047 31.8324 28.7793 31.8324C28.9539 31.8324 29.1267 31.798 29.288 31.7312C29.4493 31.6644 29.5958 31.5665 29.7193 31.443C29.8427 31.3196 29.9407 31.173 30.0075 31.0117C30.0743 30.8505 30.1087 30.6776 30.1087 30.503C30.1087 30.3284 30.0743 30.1556 30.0075 29.9943C29.9407 29.833 29.8427 29.6865 29.7193 29.563L21.4793 21.323L23.4393 19.363Z" fill="#0ED2F6"/>
</svg>
