<svg width="40" height="40" viewBox="0 0 40 40" fill="none" xmlns="http://www.w3.org/2000/svg">
<g clip-path="url(#clip0_829_14976)">
<path d="M31.275 10.5C28.815 10.5 26.4917 11.4889 24.8346 13.2017L12.825 24.2203C11.7317 25.3504 10.2796 25.9684 8.725 25.9684C5.53042 25.9684 2.91667 23.3021 2.91667 20C2.91667 16.698 5.53042 14.0316 8.725 14.0316C10.2796 14.0316 11.7317 14.6497 12.8933 15.8504L14.8238 17.6162L17.4375 15.25L15.2508 13.29C14.3953 12.4024 13.3782 11.6988 12.2581 11.2199C11.1379 10.7411 9.93713 10.4964 8.725 10.5C3.63417 10.5 -0.5 14.7733 -0.5 20C-0.5 25.2268 3.63417 29.5 8.725 29.5C11.185 29.5 13.5083 28.5112 15.1654 26.7983L27.175 15.7798C28.2683 14.6497 29.7204 14.0316 31.275 14.0316C34.4696 14.0316 37.0833 16.698 37.0833 20C37.0833 23.3021 34.4696 25.9684 31.275 25.9684C29.7375 25.9684 28.2683 25.3504 27.1067 24.1496L25.125 22.3662L22.5625 24.7324L24.7492 26.71C25.607 27.5932 26.625 28.2927 27.7448 28.7684C28.8646 29.2442 30.0643 29.4868 31.275 29.4823C36.3658 29.4823 40.5 25.2268 40.5 20C40.5 14.7026 36.3658 10.5 31.275 10.5Z" fill="#0ED2F6"/>
</g>
<defs>
<clipPath id="clip0_829_14976">
<rect width="40" height="40" fill="white"/>
</clipPath>
</defs>
</svg>
