<svg width="40" height="40" viewBox="0 0 40 40" fill="none" xmlns="http://www.w3.org/2000/svg">
<path d="M17.5495 18.395C19.0285 20.855 18.811 23.75 17.042 24.92C15.273 26.06 12.634 24.995 11.1405 22.535C9.6615 20.075 9.8935 17.15 11.6625 16.01C13.4315 14.87 16.0705 15.935 17.5495 18.395ZM20 28.625C22.9 28.625 23.625 27.5 23.625 27.5C23.625 27.5 22.9 30.5 20 30.5C17.1 30.5 16.375 27.545 16.375 27.5C16.375 27.5 17.1 28.625 20 28.625ZM28.3375 16.01C30.1065 17.15 30.3385 20.075 28.8595 22.535C27.366 24.995 24.727 26.06 22.958 24.92C21.189 23.75 20.9715 20.855 22.4505 18.395C23.9295 15.935 26.5685 14.87 28.3375 16.01ZM20 32C23.625 32 31.6 24.29 31.6 18.5C31.6 12.71 26.3945 8 20 8C13.6055 8 8.4 12.71 8.4 18.5C8.4 24.29 16.375 32 20 32ZM20 5C27.975 5 34.5 11.06 34.5 18.5C34.5 24.62 26.264 35 20 35C13.736 35 5.5 24.62 5.5 18.5C5.5 11.06 12.025 5 20 5Z" fill="#0ED2F6"/>
</svg>
